<svg xmlns="http://www.w3.org/2000/svg" viewBox="0 0 2108.37 1570.54"><defs><style>.cls-1{fill:#00d2b4;}.cls-2{fill:#d4c8c2;}.cls-3{fill:#ff8080;}.cls-4{fill:#ac94fa;}.cls-5,.cls-9{font-size:12px;font-family:MyriadPro-Regular, Myriad Pro;}.cls-6{fill:#e3ff7b;}.cls-7{fill:#f4f5f7;}.cls-8{fill:#262622;}.cls-16,.cls-9{fill:#fff;}.cls-10{font-family:AdobeMingStd-Light-B5pc-H, Adobe Ming Std;}.cls-11{fill:#3a99ff;}.cls-12{font-size:45px;font-family:Didot-Bold, Didot;font-weight:700;}.cls-13{letter-spacing:0.05em;}.cls-14{letter-spacing:0.28em;}.cls-15{fill:none;stroke:#000;stroke-miterlimit:10;stroke-width:2px;}</style></defs><g id="主視覺色票"><rect class="cls-1" x="400" y="2" width="200" height="200"/><rect class="cls-2" x="200" y="2" width="200" height="200"/><rect class="cls-3" x="600" y="202" width="200" height="200"/><rect class="cls-4" x="200" y="202" width="200" height="200"/><text class="cls-5" transform="translate(286.14 272)">R 172<tspan x="-0.65" y="14.4">G 148</tspan><tspan x="-0.02" y="28.8">B 250</tspan><tspan x="-5.63" y="57.6">#ac94fa</tspan></text><text class="cls-5" transform="translate(686.36 274.27)">R 249<tspan x="-0.65" y="14.4">G 128</tspan><tspan x="-0.02" y="28.8">B 128</tspan><tspan x="-6.39" y="57.6">#f98080</tspan></text><text class="cls-5" transform="translate(492.25 74.27)">R 0<tspan x="-6.8" y="14.4">G 210</tspan><tspan x="-6.18" y="28.8">B 180</tspan><tspan x="-14.12" y="57.6">#00dcb4</tspan></text><text class="cls-5" transform="translate(286.02 72.45)">R 212<tspan x="-0.65" y="14.4">G 200 </tspan><tspan x="-0.02" y="28.8">B 190</tspan><tspan x="-7.59" y="57.6">#31c4be</tspan></text><rect class="cls-6" width="200" height="200"/><rect class="cls-7" x="600" y="2" width="200" height="200"/><rect class="cls-8" x="400" y="202" width="200" height="200"/><text class="cls-9" transform="translate(489.67 271.65)">R 38<tspan x="-0.65" y="14.4">G 38</tspan><tspan x="-0.02" y="28.8">B 34</tspan><tspan x="-10.79" y="57.6">#262622</tspan></text><text class="cls-5" transform="translate(685.99 72.65)">R 244<tspan x="-0.65" y="14.4">G 245</tspan><tspan x="-0.02" y="28.8">B 247</tspan><tspan x="-3.74" y="57.6">#f4f5f7</tspan></text><text class="cls-5" transform="translate(86.39 73.26)">R 2<tspan class="cls-10" x="15.16" y="0">27</tspan><tspan x="-0.77" y="14.4">G 255 </tspan><tspan x="-0.14" y="28.8">B 123</tspan><tspan x="-5.44" y="57.6">#e3ff7b</tspan></text><rect class="cls-11" y="202" width="200" height="200"/><text class="cls-5" transform="translate(89.2 275.2)">R 58<tspan x="-3.73" y="14.4">G 153</tspan><tspan x="-3.1" y="28.8">B 255</tspan><tspan x="-7.95" y="57.6">#3a99ff</tspan></text></g><g id="LOGO_confirm" data-name="LOGO confirm"><path d="M2191.37,958.08c0,1.78,0,3.55-.14,5.31V952.77C2191.32,954.53,2191.37,956.3,2191.37,958.08Z" transform="translate(-83 -48)"/>
<path d="M307,1020.1v54.53a79.52,79.52,0,0,1-38.28-13.52l-.08-.06c-.42-.33-.82-.64-1.24-1l-.4-.31c-1-.74-2-1.46-3-2.16a99.77,99.77,0,0,0-37-15.76l-1.84-.35a98.87,98.87,0,0,0-11.76-1.42c-2.07-.14-4.16-.2-6.26-.2H207v-19.8Z" transform="translate(-83 -48)"/><path d="M307,1094.68V1220.1H267V1083.37a98.45,98.45,0,0,0,20,7.94c2.82.78,5.7,1.44,8.62,2A98.8,98.8,0,0,0,307,1094.68Z" transform="translate(-83 -48)"/><rect x="24.03" y="972.1" width="60" height="120"/><path d="M247,1070.52V1220.1H207v-160h5.82A79.74,79.74,0,0,1,247,1070.52Z" transform="translate(-83 -48)"/><path d="M167,1190.1a30,30,0,0,1-20,28.29q-.63.22-1.29.42a30,30,0,0,1-37-38.71,29.55,29.55,0,0,1,3.91-7.47A30,30,0,0,1,127,1161.81,26.8,26.8,0,0,1,130,1161a29.35,29.35,0,0,1,7.06-.85,30,30,0,0,1,30,30Z" transform="translate(-83 -48)"/><path d="M268.67,1061.05l-1.37-1-.27-.2c-1-.73-2-1.49-3-2.27,1,.7,2,1.42,3,2.16l.4.31C267.85,1060.41,268.25,1060.72,268.67,1061.05Z" transform="translate(-83 -48)"/><path d="M366.3,1040.69l11.33,34.87h.13l11.53-34.87h16.37v1h-6v47.89h6v1H384.18v-1h6v-47.89H390l-16.11,48.87h-1l-16.18-48.87h-.13v47.89h6v1h-13.1v-1h6v-47.89h-6v-1Z" transform="translate(-83 -48)"/><path d="M417.77,1089.56l19.51-50.83h1.77l20.63,50.83h5.63v1h-22v-1h6.09l-7.6-18.76H426.08l-7.27,18.76h5.83v1H412.26v-1Zm8.64-19.74h15.06l-7.73-19.12Z" transform="translate(-83 -48)"/><path d="M474.73,1075c.09.56.24,1.29.46,2.21a21.59,21.59,0,0,0,.95,2.94,24.34,24.34,0,0,0,1.57,3.22,15,15,0,0,0,2.33,3,13.42,13.42,0,0,0,2.91,2.45,12.19,12.19,0,0,0,2.69,1.23,9.06,9.06,0,0,0,2.42.42l2.13,0a12.31,12.31,0,0,0,5.69-1.15,10.18,10.18,0,0,0,3.51-2.84,10.65,10.65,0,0,0,1.8-3.53,12.15,12.15,0,0,0,.52-3.26,7.46,7.46,0,0,0-1.14-4.27,9.47,9.47,0,0,0-3.05-2.8,20.85,20.85,0,0,0-4.32-1.89l-5-1.58a43.09,43.09,0,0,1-5-1.89,16.18,16.18,0,0,1-4.33-2.8,12.61,12.61,0,0,1-3-4.24,15.13,15.13,0,0,1-1.15-6.3,12.84,12.84,0,0,1,1.18-5.39,14.94,14.94,0,0,1,3.27-4.59,16.53,16.53,0,0,1,5-3.22,16.29,16.29,0,0,1,6.32-1.22,15.38,15.38,0,0,1,3.8.42q1.63.42,2.88.87c.83.31,1.56.6,2.2.88a4.32,4.32,0,0,0,1.73.42,1.67,1.67,0,0,0,1.21-.32,3.71,3.71,0,0,0,.63-1.15h1V1054h-.85q-.78-2.45-1.67-4.83a18.57,18.57,0,0,0-2.26-4.31,10,10,0,0,0-8.77-4.3,12.85,12.85,0,0,0-4.62.77,10.52,10.52,0,0,0-3.37,2,8.84,8.84,0,0,0-2.1,2.8,7.39,7.39,0,0,0-.72,3.15,6.59,6.59,0,0,0,1.21,4.06,10.64,10.64,0,0,0,3.18,2.77,23.54,23.54,0,0,0,4.49,2q2.52.84,5.17,1.76c1.77.6,3.49,1.27,5.17,2a17.45,17.45,0,0,1,4.49,2.77,12.2,12.2,0,0,1,4.39,9.94,16.46,16.46,0,0,1-5,11.9,18.11,18.11,0,0,1-5.7,3.68,19.13,19.13,0,0,1-7.37,1.37,20.17,20.17,0,0,1-4-.42c-1.34-.28-2.58-.58-3.74-.88s-2.18-.6-3.08-.88a7.47,7.47,0,0,0-2-.42,2.11,2.11,0,0,0-1.31.32,2.87,2.87,0,0,0-.72,1.29h-1.05V1075Z" transform="translate(-83 -48)"/><path d="M534.06,1041.67a16.32,16.32,0,0,0-4.33.52,8.77,8.77,0,0,0-3.4,1.82,11.77,11.77,0,0,0-2.69,3.61,32.33,32.33,0,0,0-2.16,5.88h-.85v-12.81h41.06v12.81h-.85a31.6,31.6,0,0,0-2.16-5.88A11.77,11.77,0,0,0,556,1044a8.77,8.77,0,0,0-3.4-1.82,16.29,16.29,0,0,0-4.32-.52h-2.36v47.89h6v1H530.39v-1h6v-47.89Z" transform="translate(-83 -48)"/><path d="M611.85,1040.69v12H611a24.87,24.87,0,0,0-1.12-3,15.09,15.09,0,0,0-2.19-3.61,13,13,0,0,0-3.64-3,10.65,10.65,0,0,0-5.43-1.29H588.21v21.64h3.66a10.19,10.19,0,0,0,4.1-.74,7.35,7.35,0,0,0,2.78-2.1,11.66,11.66,0,0,0,1.83-3.29,26.06,26.06,0,0,0,1.18-4.31h.85v21.78h-.85a39.5,39.5,0,0,0-1.08-3.92,11.81,11.81,0,0,0-1.67-3.33,7.39,7.39,0,0,0-6.42-3.11h-4.38v25.27H599a12.9,12.9,0,0,0,9.72-4.13,17.13,17.13,0,0,0,3.11-4.58,26.16,26.16,0,0,0,1.9-5.64h.85v15.33H572.69v-1h6v-47.89h-6v-1Z" transform="translate(-83 -48)"/><path d="M625.85,1041.67v-1h9.89c1.84,0,3.65,0,5.44-.11s3.6-.1,5.43-.1a28.33,28.33,0,0,1,5.41.56,16.61,16.61,0,0,1,5.2,1.92,11.82,11.82,0,0,1,3.9,3.68,10.32,10.32,0,0,1,1.54,5.81,9.33,9.33,0,0,1-1.18,4.8,9.9,9.9,0,0,1-3.05,3.25,14.34,14.34,0,0,1-4.15,1.93,24,24,0,0,1-4.52.88v.35q3.21.63,5.73,1.26a13.27,13.27,0,0,1,4.35,1.89,8.73,8.73,0,0,1,2.92,3.5,16.83,16.83,0,0,1,1.34,6q.33,4.41.52,7.07a26.26,26.26,0,0,0,.56,4.13,3.56,3.56,0,0,0,1,2,2.86,2.86,0,0,0,1.8.49,3,3,0,0,0,2.16-.8c.57-.54,1.07-1,1.51-1.51l.65.63c-.43.47-.86.9-1.27,1.3a6.55,6.55,0,0,1-1.44,1,8,8,0,0,1-2,.66,15.09,15.09,0,0,1-3,.25,10.86,10.86,0,0,1-5.63-1.23,8,8,0,0,1-3-3,10.46,10.46,0,0,1-1.21-4c-.16-1.43-.26-2.77-.3-4-.09-1.91-.21-3.77-.36-5.57a16.28,16.28,0,0,0-1.08-4.79,7.7,7.7,0,0,0-2.55-3.36,7.92,7.92,0,0,0-4.78-1.26h-4.33v25.27h6v1H625.85v-1h6v-47.89Zm18.21,21.64a10.68,10.68,0,0,0,4.65-.84,5.93,5.93,0,0,0,2.55-2.28,8.27,8.27,0,0,0,1.08-3.26,28.32,28.32,0,0,0,.23-3.71,30.8,30.8,0,0,0-.39-5.28,10,10,0,0,0-1.31-3.65,5.59,5.59,0,0,0-2.52-2.13,10.25,10.25,0,0,0-4.09-.7,13.94,13.94,0,0,0-1.45.07l-1.44.14v21.64Z" transform="translate(-83 -48)"/><path d="M363.22,1151.13a16.27,16.27,0,0,0-4.32.53,8.81,8.81,0,0,0-3.41,1.82,11.67,11.67,0,0,0-2.68,3.61,30.9,30.9,0,0,0-2.16,5.88h-.85v-12.82h41.06V1163H390a32.33,32.33,0,0,0-2.16-5.88,11.69,11.69,0,0,0-2.69-3.61,8.74,8.74,0,0,0-3.41-1.82,16.17,16.17,0,0,0-4.32-.53h-2.36V1199h6v1H359.55v-1h6v-47.9Z" transform="translate(-83 -48)"/><path d="M419.58,1164.44a27.7,27.7,0,0,1,5.8-8.26,25.52,25.52,0,0,1,7.92-5.29,21.86,21.86,0,0,1,8.58-1.86,23.39,23.39,0,0,1,8.94,1.82,24.62,24.62,0,0,1,7.86,5.19,26.09,26.09,0,0,1,5.56,8.15,26.42,26.42,0,0,1,2.13,10.82,25.23,25.23,0,0,1-2,10,27.58,27.58,0,0,1-5.37,8.3,25.29,25.29,0,0,1-7.79,5.63,21.76,21.76,0,0,1-9.33,2.07,22.36,22.36,0,0,1-9.3-2,25.21,25.21,0,0,1-7.83-5.46,26.82,26.82,0,0,1-5.4-8.15,25.39,25.39,0,0,1-2-10.16A25.07,25.07,0,0,1,419.58,1164.44Zm9.2,22.86a22.2,22.2,0,0,0,2.46,7.63,9.13,9.13,0,0,0,4.32,4,16.12,16.12,0,0,0,6.32,1.12,13,13,0,0,0,7.6-1.93,11.63,11.63,0,0,0,4.12-5.32,26.91,26.91,0,0,0,1.74-8c.24-3.1.36-6.48.36-10.12,0-3.27-.1-6.38-.3-9.35a25.07,25.07,0,0,0-1.67-7.84,12,12,0,0,0-4.16-5.39c-1.85-1.33-4.42-2-7.69-2a12.92,12.92,0,0,0-7.34,1.86,11.63,11.63,0,0,0-4.19,5.22,27.18,27.18,0,0,0-1.9,8q-.45,4.62-.45,10.15A77.37,77.37,0,0,0,428.78,1187.3Z" transform="translate(-83 -48)"/><path d="M508,1150.15l21.81,33.33h.13v-32.35h-6v-1H537v1h-6V1200h-1.77l-29.47-44.89h-.13V1199h6v1H492.51v-1h6v-47.9h-6v-1Z" transform="translate(-83 -48)"/><path d="M601.55,1150.15v12h-.85a26.36,26.36,0,0,0-1.11-3.05,15.22,15.22,0,0,0-2.2-3.6,12.91,12.91,0,0,0-3.63-3,10.71,10.71,0,0,0-5.44-1.3H577.91v21.64h3.67a10.14,10.14,0,0,0,4.09-.73,7.38,7.38,0,0,0,2.78-2.11,11.31,11.31,0,0,0,1.84-3.29,27.24,27.24,0,0,0,1.18-4.3h.85v21.77h-.85c-.31-1.35-.67-2.66-1.08-3.92a12.16,12.16,0,0,0-1.67-3.32,7.36,7.36,0,0,0-6.42-3.12h-4.39V1199h10.74a13.08,13.08,0,0,0,5.44-1.09,13.49,13.49,0,0,0,4.29-3,17.58,17.58,0,0,0,3.11-4.59,26.72,26.72,0,0,0,1.9-5.64h.85V1200H562.39v-1h6v-47.9h-6v-1Z" transform="translate(-83 -48)"/><path d="M633.52,1184.46c.08.56.24,1.3.45,2.21a23.08,23.08,0,0,0,.95,2.94,23.85,23.85,0,0,0,1.58,3.22,14.73,14.73,0,0,0,2.32,3.05,13.71,13.71,0,0,0,2.91,2.45,11.88,11.88,0,0,0,2.69,1.22,9.12,9.12,0,0,0,2.42.42c.77,0,1.48,0,2.13,0a12.37,12.37,0,0,0,5.7-1.16,10.21,10.21,0,0,0,3.5-2.83,10.6,10.6,0,0,0,1.8-3.54,12.14,12.14,0,0,0,.53-3.25,7.44,7.44,0,0,0-1.15-4.27,9.35,9.35,0,0,0-3-2.81,21.81,21.81,0,0,0-4.33-1.89l-5-1.57a46.45,46.45,0,0,1-5-1.89,16.46,16.46,0,0,1-4.32-2.8,12.84,12.84,0,0,1-3.05-4.24,15.3,15.3,0,0,1-1.14-6.3,12.92,12.92,0,0,1,1.17-5.39,14.69,14.69,0,0,1,3.28-4.59,16.53,16.53,0,0,1,5-3.22,16.08,16.08,0,0,1,6.32-1.23,15.44,15.44,0,0,1,3.8.42c1.09.28,2,.58,2.88.88s1.56.59,2.19.87a4.32,4.32,0,0,0,1.74.42,1.69,1.69,0,0,0,1.21-.31,3.81,3.81,0,0,0,.62-1.16h1v13.31h-.85c-.53-1.64-1.08-3.25-1.67-4.83a18.55,18.55,0,0,0-2.26-4.31,10.94,10.94,0,0,0-3.47-3.12,10.7,10.7,0,0,0-5.31-1.19,12.84,12.84,0,0,0-4.61.77,10.64,10.64,0,0,0-3.38,2,9,9,0,0,0-2.09,2.81,7.32,7.32,0,0,0-.72,3.15,6.57,6.57,0,0,0,1.21,4.06,10.84,10.84,0,0,0,3.17,2.76,23.55,23.55,0,0,0,4.49,2c1.68.56,3.41,1.14,5.17,1.75s3.5,1.27,5.18,2a17.67,17.67,0,0,1,4.48,2.77,13.22,13.22,0,0,1,3.18,4.06,12.86,12.86,0,0,1,1.21,5.88,16.58,16.58,0,0,1-1.31,6.52,16.31,16.31,0,0,1-3.7,5.39,17.86,17.86,0,0,1-5.7,3.67,18.93,18.93,0,0,1-7.36,1.37,19.49,19.49,0,0,1-4-.42c-1.33-.28-2.58-.57-3.73-.88s-2.19-.59-3.08-.87a7.52,7.52,0,0,0-2-.42,2.12,2.12,0,0,0-1.31.31,2.92,2.92,0,0,0-.72,1.3h-1.05v-15.55Z" transform="translate(-83 -48)"/><path d="M306.2,718.35v54.53a79.52,79.52,0,0,1-38.28-13.52l-.08-.06c-.42-.33-.82-.64-1.24-.95l-.4-.31c-1-.74-2-1.46-3-2.16a99.77,99.77,0,0,0-37-15.76l-1.84-.35a98.87,98.87,0,0,0-11.76-1.42c-2.07-.14-4.16-.2-6.26-.2h-.14v-19.8Z" transform="translate(-83 -48)"/><path d="M306.2,792.93V918.35h-40V781.62a98.45,98.45,0,0,0,20,7.94c2.82.78,5.7,1.44,8.62,2A98.8,98.8,0,0,0,306.2,792.93Z" transform="translate(-83 -48)"/><rect x="23.2" y="670.35" width="60" height="120"/><path d="M246.2,768.77V918.35h-40v-160H212a79.74,79.74,0,0,1,34.18,10.42Z" transform="translate(-83 -48)"/><path d="M166.2,888.35a30,30,0,0,1-20,28.29q-.63.23-1.29.42a30,30,0,0,1-37-38.71,29.55,29.55,0,0,1,3.91-7.47,30,30,0,0,1,14.38-10.82,26.8,26.8,0,0,1,2.94-.86,29.35,29.35,0,0,1,7.06-.85,30,30,0,0,1,30,30Z" transform="translate(-83 -48)"/><path d="M267.84,759.3l-1.37-.95-.27-.2c-1-.73-2-1.49-3-2.27,1,.7,2,1.42,3,2.16l.4.31C267,758.66,267.42,759,267.84,759.3Z" transform="translate(-83 -48)"/><path d="M314.54,1305.23v54.53a79.52,79.52,0,0,1-38.28-13.52l-.08-.06c-.42-.33-.82-.64-1.24-1l-.4-.31c-1-.74-2-1.46-3-2.16a99.77,99.77,0,0,0-37-15.76l-1.84-.35a98.87,98.87,0,0,0-11.76-1.42c-2.07-.14-4.16-.2-6.26-.2h-.14v-19.8Z" transform="translate(-83 -48)"/><path d="M314.54,1379.81v125.42h-40V1368.5a98.45,98.45,0,0,0,20,7.94c2.82.78,5.7,1.44,8.62,2A98.8,98.8,0,0,0,314.54,1379.81Z" transform="translate(-83 -48)"/><rect x="31.54" y="1257.23" width="60" height="120"/><path d="M254.54,1355.65v149.58h-40v-160h5.82a79.74,79.74,0,0,1,34.18,10.42Z" transform="translate(-83 -48)"/><path d="M174.54,1475.23a30,30,0,0,1-20,28.29q-.63.23-1.29.42a30,30,0,0,1-37-38.71,29.55,29.55,0,0,1,3.91-7.47,30,30,0,0,1,14.38-10.82,26.8,26.8,0,0,1,2.94-.86,29.35,29.35,0,0,1,7.06-.85,29.79,29.79,0,0,1,10,1.71,30.13,30.13,0,0,1,18.29,18.29A29.79,29.79,0,0,1,174.54,1475.23Z" transform="translate(-83 -48)"/><path d="M276.18,1346.18l-1.37-1-.27-.2c-1-.73-2-1.49-3-2.27,1,.7,2,1.42,3,2.16l.4.31C275.36,1345.54,275.76,1345.85,276.18,1346.18Z" transform="translate(-83 -48)"/><text class="cls-12" transform="translate(31.54 1509.8) scale(0.94 1)"><tspan class="cls-13">MASTE</tspan><tspan x="181.36" y="0">R</tspan><tspan class="cls-14" x="0" y="47.51">TONE</tspan><tspan x="184.69" y="47.51">S</tspan></text><path class="cls-15" d="M562,718.58v54.53a79.52,79.52,0,0,1-38.28-13.52l-.08-.06c-.42-.33-.82-.64-1.24-.95l-.4-.31c-1-.74-2-1.46-3-2.16a99.77,99.77,0,0,0-37-15.76l-1.84-.35a98.87,98.87,0,0,0-11.76-1.42c-2.07-.14-4.16-.2-6.26-.2H462v-19.8Z" transform="translate(-83 -48)"/><path class="cls-15" d="M562,793.16V918.58H522V781.85a98.45,98.45,0,0,0,20,7.94c2.82.78,5.7,1.44,8.62,2A98.8,98.8,0,0,0,562,793.16Z" transform="translate(-83 -48)"/><rect class="cls-15" x="278.96" y="670.58" width="60" height="120"/><path class="cls-15" d="M502,769V918.58H462v-160h5.82A79.74,79.74,0,0,1,502,769Z" transform="translate(-83 -48)"/><path class="cls-15" d="M422,888.58a30,30,0,0,1-20,28.29q-.63.23-1.29.42a30,30,0,0,1-37-38.71,29.55,29.55,0,0,1,3.91-7.47A30,30,0,0,1,382,860.29a26.8,26.8,0,0,1,2.94-.86,29.35,29.35,0,0,1,7.06-.85,30,30,0,0,1,30,30Z" transform="translate(-83 -48)"/><path class="cls-15" d="M523.6,759.53l-1.37-.95-.27-.2c-1-.73-2-1.49-3-2.27,1,.7,2,1.42,3,2.16l.4.31C522.78,758.89,523.18,759.2,523.6,759.53Z" transform="translate(-83 -48)"/><rect x="545.57" y="666.33" width="200" height="200"/><path class="cls-16" d="M808.57,734.33V778a63.73,63.73,0,0,1-30.63-10.82l-.06,0c-.34-.27-.66-.52-1-.76l-.32-.25c-.79-.59-1.59-1.17-2.41-1.73a79.75,79.75,0,0,0-29.59-12.61l-1.47-.28a78.76,78.76,0,0,0-9.41-1.13c-1.66-.12-3.33-.16-5-.16h-.11V734.33Z" transform="translate(-83 -48)"/><path class="cls-16" d="M808.57,794V894.33h-32V784.94a78.59,78.59,0,0,0,16,6.35c2.25.63,4.56,1.16,6.89,1.58A80.1,80.1,0,0,0,808.57,794Z" transform="translate(-83 -48)"/><rect class="cls-16" x="565.57" y="686.33" width="48" height="96"/><path class="cls-16" d="M760.57,774.66V894.33h-32v-128h4.65a62.5,62.5,0,0,1,11.35,1.83A63.54,63.54,0,0,1,760.57,774.66Z" transform="translate(-83 -48)"/><path class="cls-16" d="M696.57,870.33a23.84,23.84,0,0,1-1.37,8,23.56,23.56,0,0,1-2.38,4.86A24,24,0,0,1,680.57,893c-.34.12-.68.23-1,.33a24,24,0,0,1-15-.33,24,24,0,0,1-16-22.63,24,24,0,0,1,4.49-14,24,24,0,0,1,11.51-8.66,21.06,21.06,0,0,1,2.35-.68,23.37,23.37,0,0,1,5.65-.68,23.94,23.94,0,0,1,22.63,16A23.75,23.75,0,0,1,696.57,870.33Z" transform="translate(-83 -48)"/><path class="cls-16" d="M777.88,767.09l-1.1-.76-.21-.16c-.82-.59-1.63-1.2-2.41-1.82.82.56,1.62,1.14,2.41,1.73l.32.25C777.22,766.57,777.54,766.82,777.88,767.09Z" transform="translate(-83 -48)"/><rect class="cls-4" x="786.82" y="664.1" width="200" height="200"/><path class="cls-6" d="M1049.82,732.1v43.62a63.31,63.31,0,0,1-16-3.41,64,64,0,0,1-14.63-7.4l-.06,0-1-.76-.32-.25c-.79-.59-1.59-1.17-2.41-1.73a79.69,79.69,0,0,0-13.59-7.56,78.62,78.62,0,0,0-16-5c-.49-.1-1-.2-1.47-.28a78.77,78.77,0,0,0-9.41-1.14c-1.66-.11-3.33-.16-5-.16h-.11V732.1Z" transform="translate(-83 -48)"/><path class="cls-6" d="M1049.82,791.76V892.1h-32V782.72a79.17,79.17,0,0,0,16,6.35c2.25.62,4.56,1.15,6.89,1.57A77.9,77.9,0,0,0,1049.82,791.76Z" transform="translate(-83 -48)"/><rect class="cls-6" x="806.82" y="684.1" width="48" height="96"/><path class="cls-6" d="M1001.82,772.44V892.1h-32v-128h4.65a63.65,63.65,0,0,1,27.35,8.34Z" transform="translate(-83 -48)"/><path class="cls-6" d="M937.82,868.1a24.06,24.06,0,0,1-16,22.63l-1,.34a24,24,0,0,1-15-45.6,21.11,21.11,0,0,1,2.35-.69,23.37,23.37,0,0,1,5.65-.68,23.79,23.79,0,0,1,8,1.37,24.07,24.07,0,0,1,14.63,14.63A23.79,23.79,0,0,1,937.82,868.1Z" transform="translate(-83 -48)"/><path class="cls-6" d="M1019.13,764.86c-.37-.25-.74-.5-1.1-.76l-.21-.16c-.82-.58-1.63-1.19-2.41-1.82.82.56,1.62,1.14,2.41,1.73l.32.25Z" transform="translate(-83 -48)"/><rect class="cls-4" x="1037.59" y="664.3" width="200" height="200"/><path class="cls-7" d="M1300.59,732.3v43.63A63.73,63.73,0,0,1,1270,765.11l-.06-.05-1-.76-.32-.25c-.8-.59-1.6-1.16-2.41-1.72a79.75,79.75,0,0,0-29.59-12.61l-1.48-.28a78.6,78.6,0,0,0-9.4-1.14c-1.66-.11-3.33-.16-5-.16h-.11V732.3Z" transform="translate(-83 -48)"/><path class="cls-7" d="M1300.59,792V892.3h-32V782.92a78.59,78.59,0,0,0,16,6.35c2.25.62,4.56,1.15,6.89,1.58A80.1,80.1,0,0,0,1300.59,792Z" transform="translate(-83 -48)"/><rect class="cls-7" x="1057.59" y="684.3" width="48" height="96"/><path class="cls-7" d="M1252.59,772.64V892.3h-32v-128h4.65a63.65,63.65,0,0,1,27.35,8.34Z" transform="translate(-83 -48)"/><path class="cls-7" d="M1188.59,868.3a23.84,23.84,0,0,1-3.75,12.87,24.07,24.07,0,0,1-12.25,9.76c-.34.12-.68.24-1,.34a24,24,0,0,1-29.6-31,23.6,23.6,0,0,1,3.13-6,23.93,23.93,0,0,1,11.51-8.66,22.73,22.73,0,0,1,2.35-.69,23.37,23.37,0,0,1,5.65-.68,23.84,23.84,0,0,1,8,1.37,24.1,24.1,0,0,1,14.63,14.63A23.79,23.79,0,0,1,1188.59,868.3Z" transform="translate(-83 -48)"/><path class="cls-7" d="M1269.9,765.06c-.37-.25-.74-.5-1.1-.76l-.21-.16c-.82-.58-1.63-1.19-2.41-1.81.81.56,1.61,1.13,2.41,1.72l.32.25Z" transform="translate(-83 -48)"/><rect class="cls-3" x="786.82" y="923" width="200" height="200"/><path class="cls-6" d="M1049.82,991v43.63a63.73,63.73,0,0,1-30.63-10.82l-.06,0-1-.76-.32-.24c-.79-.6-1.59-1.17-2.41-1.73a79.75,79.75,0,0,0-29.59-12.61l-1.47-.28a80.88,80.88,0,0,0-9.41-1.14c-1.66-.11-3.33-.16-5-.16h-.11V991Z" transform="translate(-83 -48)"/><path class="cls-6" d="M1049.82,1050.67V1151h-32V1041.62a78.59,78.59,0,0,0,16,6.35c2.25.63,4.56,1.15,6.89,1.58A80.1,80.1,0,0,0,1049.82,1050.67Z" transform="translate(-83 -48)"/><rect class="cls-6" x="806.82" y="943" width="48" height="96"/><path class="cls-6" d="M1001.82,1031.34V1151h-32V1023h4.65a64,64,0,0,1,27.35,8.34Z" transform="translate(-83 -48)"/><path class="cls-6" d="M937.82,1127a23.84,23.84,0,0,1-3.75,12.87,24,24,0,0,1-12.25,9.77c-.34.12-.68.23-1,.33a24,24,0,0,1-29.6-31,23.57,23.57,0,0,1,3.12-6,24,24,0,0,1,11.51-8.66,23.48,23.48,0,0,1,2.35-.69A24,24,0,0,1,937.82,1127Z" transform="translate(-83 -48)"/><path class="cls-6" d="M1019.13,1023.76c-.37-.24-.74-.5-1.1-.76a1.46,1.46,0,0,1-.21-.16c-.82-.58-1.63-1.19-2.41-1.81.82.56,1.62,1.13,2.41,1.73l.32.24Z" transform="translate(-83 -48)"/><rect class="cls-3" x="1037.59" y="923" width="200" height="200"/><path class="cls-7" d="M1300.59,991v43.63a63.73,63.73,0,0,1-30.63-10.82l-.06,0-1-.76-.32-.24c-.8-.6-1.6-1.17-2.41-1.73a79.75,79.75,0,0,0-29.59-12.61l-1.48-.28a80.71,80.71,0,0,0-9.4-1.14c-1.66-.11-3.33-.16-5-.16h-.11V991Z" transform="translate(-83 -48)"/><path class="cls-7" d="M1300.59,1050.67V1151h-32V1041.62a78.59,78.59,0,0,0,16,6.35c2.25.63,4.56,1.15,6.89,1.58A80.1,80.1,0,0,0,1300.59,1050.67Z" transform="translate(-83 -48)"/><rect class="cls-7" x="1057.59" y="943" width="48" height="96"/><path class="cls-7" d="M1252.59,1031.34V1151h-32V1023h4.65a64,64,0,0,1,27.35,8.34Z" transform="translate(-83 -48)"/><path class="cls-7" d="M1188.59,1127a23.84,23.84,0,0,1-3.75,12.87,24,24,0,0,1-12.25,9.77c-.34.12-.68.23-1,.33a24,24,0,0,1-29.6-31,23.6,23.6,0,0,1,3.13-6,24,24,0,0,1,11.51-8.66,22.73,22.73,0,0,1,2.35-.69,24,24,0,0,1,29.65,23.32Z" transform="translate(-83 -48)"/><path class="cls-7" d="M1269.9,1023.76c-.37-.24-.74-.5-1.1-.76a1.46,1.46,0,0,1-.21-.16c-.82-.58-1.63-1.19-2.41-1.81.81.56,1.61,1.13,2.41,1.73l.32.24Z" transform="translate(-83 -48)"/><rect class="cls-3" x="1295.28" y="925.8" width="200" height="200"/><path class="cls-11" d="M1558.28,993.8v43.63a63.65,63.65,0,0,1-30.62-10.82s0,0-.07,0c-.33-.26-.65-.51-1-.76l-.32-.24c-.79-.6-1.59-1.17-2.41-1.73a79.75,79.75,0,0,0-29.59-12.61l-1.47-.28a80.88,80.88,0,0,0-9.41-1.14c-1.66-.11-3.33-.16-5-.16h-.11V993.8Z" transform="translate(-83 -48)"/><path class="cls-11" d="M1558.28,1053.47V1153.8h-32V1044.42a78.59,78.59,0,0,0,16,6.35c2.26.63,4.56,1.15,6.9,1.58A79.64,79.64,0,0,0,1558.28,1053.47Z" transform="translate(-83 -48)"/><rect class="cls-11" x="1315.28" y="945.8" width="48" height="96"/><path class="cls-11" d="M1510.28,1034.14V1153.8h-32v-128h4.66a64.05,64.05,0,0,1,27.34,8.34Z" transform="translate(-83 -48)"/><path class="cls-11" d="M1446.28,1129.8a23.75,23.75,0,0,1-1.37,8,24,24,0,0,1-14.63,14.64c-.34.12-.68.23-1,.33a24,24,0,0,1-29.6-31,23.29,23.29,0,0,1,3.13-6,24,24,0,0,1,11.5-8.66,23.48,23.48,0,0,1,2.35-.69,24,24,0,0,1,29.65,23.32Z" transform="translate(-83 -48)"/><path class="cls-11" d="M1527.59,1026.56c-.37-.24-.73-.5-1.09-.76a1.12,1.12,0,0,1-.22-.16c-.82-.58-1.62-1.19-2.41-1.81.82.56,1.62,1.13,2.41,1.73l.32.24C1526.94,1026.05,1527.26,1026.3,1527.59,1026.56Z" transform="translate(-83 -48)"/><rect class="cls-3" x="1554.04" y="924.67" width="200" height="200"/><path class="cls-1" d="M1817,992.67v43.63a63.65,63.65,0,0,1-30.62-10.82s0,0-.07,0c-.33-.26-.65-.51-1-.76l-.32-.24c-.79-.6-1.59-1.17-2.41-1.73a79.75,79.75,0,0,0-29.59-12.61l-1.47-.28a80.88,80.88,0,0,0-9.41-1.14c-1.65-.11-3.33-.16-5-.16H1737V992.67Z" transform="translate(-83 -48)"/><path class="cls-1" d="M1817,1052.34v100.33h-32V1043.29a78.59,78.59,0,0,0,16,6.35c2.26.63,4.56,1.15,6.9,1.58A79.64,79.64,0,0,0,1817,1052.34Z" transform="translate(-83 -48)"/><rect class="cls-1" x="1574.04" y="944.67" width="48" height="96"/><path class="cls-1" d="M1769,1033v119.66h-32v-128h4.66A64.05,64.05,0,0,1,1769,1033Z" transform="translate(-83 -48)"/><path class="cls-1" d="M1705,1128.67a23.75,23.75,0,0,1-1.37,8,23.11,23.11,0,0,1-2.37,4.87,24,24,0,0,1-12.26,9.77c-.33.12-.68.23-1,.33a24,24,0,0,1-29.6-31,23.6,23.6,0,0,1,3.13-6A24,24,0,0,1,1673,1106a23.48,23.48,0,0,1,2.35-.69,24,24,0,0,1,29.65,23.32Z" transform="translate(-83 -48)"/><path class="cls-1" d="M1786.35,1025.43c-.36-.24-.73-.5-1.09-.76a1.53,1.53,0,0,1-.22-.16c-.81-.58-1.62-1.19-2.41-1.81.82.56,1.62,1.13,2.41,1.73l.32.24C1785.7,1024.92,1786,1025.17,1786.35,1025.43Z" transform="translate(-83 -48)"/><rect class="cls-4" x="1300.47" y="667.22" width="200" height="200"/><path class="cls-1" d="M1563.47,735.22v43.63A63.73,63.73,0,0,1,1532.84,768l-.06,0-1-.76-.32-.25c-.79-.59-1.59-1.16-2.41-1.72a79.75,79.75,0,0,0-29.59-12.61l-1.47-.28a78.77,78.77,0,0,0-9.41-1.14c-1.66-.11-3.33-.16-5-.16h-.11V735.22Z" transform="translate(-83 -48)"/><path class="cls-1" d="M1563.47,794.89V895.22h-32V785.84a78.59,78.59,0,0,0,16,6.35c2.25.62,4.56,1.15,6.89,1.58A80.1,80.1,0,0,0,1563.47,794.89Z" transform="translate(-83 -48)"/><rect class="cls-1" x="1320.47" y="687.22" width="48" height="96"/><path class="cls-1" d="M1515.47,775.56V895.22h-32v-128h4.65a63.65,63.65,0,0,1,27.35,8.34Z" transform="translate(-83 -48)"/><path class="cls-1" d="M1451.47,871.22a23.84,23.84,0,0,1-3.75,12.87,24,24,0,0,1-12.25,9.76c-.34.12-.68.24-1,.34a24,24,0,0,1-29.6-31,23.57,23.57,0,0,1,3.12-6,24,24,0,0,1,11.51-8.66,24.59,24.59,0,0,1,8-1.37,23.79,23.79,0,0,1,8,1.37,24.1,24.1,0,0,1,14.63,14.63A23.79,23.79,0,0,1,1451.47,871.22Z" transform="translate(-83 -48)"/><path class="cls-1" d="M1532.78,768c-.37-.25-.74-.5-1.1-.76l-.21-.16c-.82-.58-1.63-1.19-2.41-1.81.82.56,1.62,1.13,2.41,1.72l.32.25Z" transform="translate(-83 -48)"/></g></svg>